<svg id="Layer_5" enable-background="new 0 0 64 64" height="512" viewBox="0 0 64 64" width="512" xmlns="http://www.w3.org/2000/svg"><g><g><g><path d="m2 20v-10h24v2 8c0 1.1-.9 2-2 2h-10-10c-1.1 0-2-.9-2-2z" fill="#e6e9ed"/></g><g><path d="m26 36v10c0 1.1-.9 2-2 2h-10-10c-1.1 0-2-.9-2-2v-10z" fill="#e6e9ed"/></g><g><path d="m61 50v10c0 1.1-.9 2-2 2h-20c-1.1 0-2-.9-2-2v-6-4z" fill="#e6e9ed"/></g><g><path d="m2 10v-6c0-1.1.9-2 2-2h20c1.1 0 2 .9 2 2v6z" fill="#5cd6b3"/></g><g><path d="m26 34v2h-24v-6c0-1.1.9-2 2-2h10 10c1.1 0 2 .9 2 2z" fill="#5cd6b3"/></g><g><path d="m37 50v-6c0-1.1.9-2 2-2h10 10c1.1 0 2 .9 2 2v6z" fill="#5cd6b3"/></g><g><path d="m18 14h4v4h-4z" fill="#ff826e"/></g><g><circle cx="43" cy="56" fill="#ff826e" r="2"/></g><g><path d="m62 17v6c0 1.66-5.82 3-13 3s-13-1.34-13-3v-6c0 1.66 5.82 3 13 3s13-1.34 13-3z" fill="#fcd770"/></g><g><path d="m62 5v6c0 1.66-5.82 3-13 3s-13-1.34-13-3v-6c0 1.66 5.82 3 13 3s13-1.34 13-3z" fill="#fcd770"/></g><g><path d="m36 11c0 1.66 5.82 3 13 3s13-1.34 13-3v6c0 1.66-5.82 3-13 3s-13-1.34-13-3v-5z" fill="#ffeaa7"/></g><g><ellipse cx="49" cy="5" fill="#ffeaa7" rx="13" ry="3"/></g><g><circle cx="14" cy="54" fill="#ff826e" r="2"/></g><g><circle cx="49" cy="34" fill="#ff826e" r="2"/></g></g><g><path d="m49 1c-1.433 0-14 .112-14 4v6h-8v-7c0-1.654-1.346-3-3-3h-20c-1.654 0-3 1.346-3 3v16c0 1.654 1.346 3 3 3h9v4h-9c-1.654 0-3 1.346-3 3v16c0 1.654 1.346 3 3 3h9v2.184c-1.161.414-2 1.514-2 2.816 0 1.654 1.346 3 3 3 1.302 0 2.402-.839 2.816-2h19.184v5c0 1.654 1.346 3 3 3h20c1.654 0 3-1.346 3-3v-16c0-1.654-1.346-3-3-3h-9v-4.184c1.161-.414 2-1.514 2-2.816s-.839-2.402-2-2.816v-4.196c3.353-.074 13-.581 13-3.988v-18c0-3.888-12.567-4-14-4zm12 9.923c-.485.758-4.831 2.077-12 2.077s-11.515-1.319-12-2.077v-3.652c3.607 1.666 10.927 1.729 12 1.729s8.393-.063 12-1.729zm0 6c-.485.758-4.831 2.077-12 2.077s-11.515-1.319-12-2.077v-3.652c3.607 1.666 10.927 1.729 12 1.729s8.393-.063 12-1.729zm-12-13.923c6.93 0 11.229 1.233 11.945 2-.716.767-5.015 2-11.945 2s-11.229-1.233-11.945-2c.716-.767 5.015-2 11.945-2zm-45 0h20c.552 0 1 .448 1 1v5h-22v-5c0-.552.448-1 1-1zm-1 17v-9h22v9c0 .552-.448 1-1 1h-20c-.552 0-1-.448-1-1zm12 3h9c1.654 0 3-1.346 3-3v-7h8v10c0 3.406 9.647 3.914 13 3.988v4.196c-.847.302-1.514.969-1.816 1.816h-19.184v-3c0-1.654-1.346-3-3-3h-9zm-11 6h20c.552 0 1 .448 1 1v5h-22v-5c0-.552.448-1 1-1zm-1 17v-9h22v9c0 .552-.448 1-1 1h-20c-.552 0-1-.448-1-1zm11 9c-.552 0-1-.448-1-1s.448-1 1-1 1 .448 1 1-.448 1-1 1zm45 6h-20c-.552 0-1-.448-1-1v-9h22v9c0 .552-.448 1-1 1zm1-17v5h-22v-5c0-.552.448-1 1-1h20c.552 0 1 .448 1 1zm-21-3c-1.654 0-3 1.346-3 3v9h-19.184c-.302-.847-.969-1.514-1.816-1.816v-2.184h9c1.654 0 3-1.346 3-3v-11h19.184c.302.847.969 1.514 1.816 1.816v4.184zm10-6c-.552 0-1-.448-1-1s.448-1 1-1 1 .448 1 1-.448 1-1 1zm0-10c-7.14 0-11.485-1.309-12-2.068v-3.661c3.607 1.666 10.927 1.729 12 1.729s8.393-.063 12-1.729v3.661c-.515.759-4.86 2.068-12 2.068z"/><path d="m13 5h2v2h-2z"/><path d="m9 5h2v2h-2z"/><path d="m5 5h2v2h-2z"/><path d="m13 31h2v2h-2z"/><path d="m5 31h2v2h-2z"/><path d="m9 31h2v2h-2z"/><path d="m44 45h2v2h-2z"/><path d="m48 45h2v2h-2z"/><path d="m40 45h2v2h-2z"/><path d="m43 53c-1.654 0-3 1.346-3 3s1.346 3 3 3 3-1.346 3-3-1.346-3-3-3zm0 4c-.552 0-1-.448-1-1s.448-1 1-1 1 .448 1 1-.448 1-1 1z"/><path d="m48 53h10v2h-10z"/><path d="m48 57h6v2h-6z"/><path d="m56 57h2v2h-2z"/><path d="m5 39h2v2h-2z"/><path d="m9 39h14v2h-14z"/><path d="m5 43h18v2h-18z"/><path d="m17 19h6v-6h-6zm2-4h2v2h-2z"/><path d="m5 13h10v2h-10z"/><path d="m5 17h6v2h-6z"/><path d="m13 17h2v2h-2z"/></g></g></svg>