<svg id="Layer_35" enable-background="new 0 0 64 64" height="512" viewBox="0 0 64 64" width="512" xmlns="http://www.w3.org/2000/svg"><path d="m52.17 12c-.75 0-1.47.3-2 .83l-6.44 6.44c-2.39 2.39-5.45 3.95-8.73 4.5v2.23c0 1.65-1.34 3-3 3-.18 0-.36-.02-.54-.05-1.46-.25-2.46-1.63-2.46-3.12v-2.12l.01-.05c-2.84-.6-5.49-1.95-7.65-3.94l-7.5-6.93c-.55-.51-1.28-.79-2.03-.79-1.56 0-2.83 1.27-2.83 2.83 0 .75.3 1.47.83 2l13.17 13.17v9l15.92.01 2.08-.01v-9l13.17-13.17c.53-.53.83-1.25.83-2 0-1.56-1.27-2.83-2.83-2.83z" fill="#ff826e"/><path d="m22.49 52.46c-.95 1.63-1.49 3.52-1.49 5.54v4h-19v-4c0-6.08 4.92-11 11-11 4.06 0 7.58 2.2 9.49 5.46z" fill="#48cfad"/><path d="m62 58v4h-19v-4c0-2.02-.54-3.91-1.49-5.54 1.91-3.26 5.43-5.46 9.49-5.46 6.08 0 11 4.92 11 11z" fill="#48cfad"/><path d="m22.49 52.46c1.91-3.27 5.45-5.46 9.51-5.46 3.04 0 5.79 1.23 7.78 3.22.67.67 1.25 1.42 1.73 2.24.95 1.63 1.49 3.52 1.49 5.54v4h-22v-4c0-2.02.54-3.91 1.49-5.54z" fill="#5cd6b3"/><g fill="#f0d0b4"><path d="m51 33c3.87 0 7 3.13 7 7s-3.13 7-7 7-7-3.13-7-7c0-.34.02-.67.08-.99.47-3.4 3.39-6.01 6.92-6.01z"/><path d="m32 33c3.53 0 6.45 2.61 6.92 6.01.06.32.08.65.08.99 0 3.87-3.13 7-7 7s-7-3.13-7-7c0-.34.02-.67.08-.99.47-3.4 3.39-6.01 6.92-6.01z"/><path d="m19.92 39.01c.06.32.08.65.08.99 0 3.87-3.13 7-7 7s-7-3.13-7-7 3.13-7 7-7c3.53 0 6.45 2.61 6.92 6.01z"/><path d="m32.31 24c.09 0 .17 0 .26-.01.82-.01 1.63-.08 2.43-.22v2.23c0 1.65-1.34 3-3 3-.18 0-.36-.02-.54-.05-1.46-.25-2.46-1.63-2.46-3.12v-2.12l.01-.05c.43.09.87.16 1.31.21.18.03.36.05.55.07.37.04.75.06 1.13.06h.19z"/></g><path d="m43 13c0 5.89-4.62 10.69-10.43 10.99-.13 0-.25.01-.38.01-.44 0-.88-.03-1.32-.06-.19-.02-.37-.04-.55-.07-5.28-.8-9.32-5.36-9.32-10.87 0-6.08 4.92-11 11-11s11 4.92 11 11z" fill="#fcd770"/><path d="m31.243 12.97-.485-1.94-2.509.627c.554-1.544 2.019-2.657 3.751-2.657 2.206 0 4 1.794 4 4s-1.794 4-4 4c-.874 0-1.704-.276-2.399-.799l-1.201 1.6c1.045.784 2.29 1.199 3.6 1.199 3.309 0 6-2.691 6-6s-2.691-6-6-6c-2.289 0-4.281 1.289-5.292 3.179l-.813-1.626-1.789.895 2.359 4.717z"/><path d="m55.223 46.782c2.263-1.415 3.777-3.922 3.777-6.782 0-4.411-3.589-8-8-8-3.719 0-6.845 2.555-7.737 6h-1.263v-7.586l12.878-12.878c.724-.724 1.122-1.685 1.122-2.707 0-2.112-1.717-3.829-3.829-3.829-1.022 0-1.984.398-2.707 1.122l-6.443 6.442c-.272.272-.56.521-.848.769 1.151-1.841 1.827-4.007 1.827-6.333 0-6.617-5.383-12-12-12s-12 5.383-12 12c0 1.872.443 3.638 1.211 5.218l-6.672-6.159c-.74-.683-1.703-1.06-2.71-1.06-2.112.001-3.829 1.718-3.829 3.83 0 1.022.398 1.984 1.122 2.707l12.878 12.878v7.586h-1.263c-.892-3.445-4.017-6-7.737-6-4.411 0-8 3.589-8 8 0 2.86 1.514 5.367 3.777 6.782-4.536 1.714-7.777 6.089-7.777 11.218v5h19 1 22 1 19v-5c0-5.129-3.241-9.504-7.777-11.218zm-4.223-12.782c3.309 0 6 2.691 6 6s-2.691 6-6 6-6-2.691-6-6 2.691-6 6-6zm-4.208 12.791c-2.073.785-3.92 2.121-5.294 3.903-1.351-1.752-3.171-3.117-5.275-3.912 2.263-1.415 3.777-3.922 3.777-6.782h3c0 2.866 1.52 5.378 3.792 6.791zm-14.792-12.791c3.309 0 6 2.691 6 6s-2.691 6-6 6-6-2.691-6-6 2.691-6 6-6zm-2-9.174c.182.025.363.058.547.077.477.058.96.097 1.453.097h1v-.034c.334-.013.67-.017 1-.049v1.083c0 .592-.26 1.15-.713 1.531-.46.386-1.047.541-1.653.437-.932-.161-1.634-1.08-1.634-2.138zm2-21.826c5.514 0 10 4.486 10 10 0 5.464-4.406 9.911-9.85 9.992-.45-.005-.898-.026-1.343-.07-4.953-.592-8.807-4.812-8.807-9.922 0-5.514 4.486-10 10-10zm-21.464 13.122c-.346-.346-.536-.805-.536-1.293 0-1.009.82-1.829 1.829-1.829.503 0 .984.188 1.354.529l7.5 6.924c2.096 1.934 4.61 3.281 7.317 3.983v1.394c0 2.017 1.416 3.783 3.292 4.108.234.041.469.061.702.061.941 0 1.854-.327 2.58-.938.906-.762 1.426-1.877 1.426-3.061v-1.408c3.171-.692 6.086-2.264 8.436-4.614l6.443-6.442c.345-.346.804-.536 1.292-.536 1.009 0 1.829.82 1.829 1.829 0 .488-.19.947-.536 1.293l-13.464 13.464v8.414h-.263c-.81-3.13-3.466-5.52-6.737-5.931v-.069h-2v.069c-3.271.411-5.926 2.8-6.737 5.931h-.263v-8.414zm13.464 23.878c0 2.86 1.514 5.367 3.777 6.782-2.104.795-3.924 2.16-5.275 3.912-1.374-1.782-3.221-3.119-5.294-3.903 2.272-1.413 3.792-3.925 3.792-6.791zm-17 0c0-3.309 2.691-6 6-6s6 2.691 6 6-2.691 6-6 6-6-2.691-6-6zm-4 21v-3c0-5.514 4.486-10 10-10 3.356 0 6.49 1.731 8.333 4.528-.846 1.643-1.333 3.5-1.333 5.472v3zm39 0h-20v-3c0-5.514 4.486-10 10-10s10 4.486 10 10zm19 0h-17v-3c0-1.972-.487-3.829-1.333-5.472 1.843-2.797 4.977-4.528 8.333-4.528 5.514 0 10 4.486 10 10z"/><path d="m50 28h2v2h-2z"/><path d="m54 28h2v2h-2z"/><path d="m58 28h2v2h-2z"/><path d="m4 28h2v2h-2z"/><path d="m8 28h2v2h-2z"/><path d="m12 28h2v2h-2z"/></svg>