<svg id="Layer_1" height="512" viewBox="0 0 512 512" width="512" xmlns="http://www.w3.org/2000/svg" data-name="Layer 1"><rect fill="#6d7486" height="307.48" rx="11.23" width="490" x="11" y="52.25"/><path d="m317.78 362.6v44.93h-123.56v-44.93-2.87h123.56z" fill="#4a5160"/><path d="m44.7 85.95v240.08h422.6v-240.08z" fill="#fb6771"/><circle cx="256.833" cy="210.833" fill="#eadf53" r="55.5"/><path d="m280.6 211.61-32.09 24.07v-48.14z" fill="#5fa8ed"/><path d="m384.51 429.75h-.8a30 30 0 0 0 60 0z" fill="#4689d3"/><path d="m433.71 289.75h-40a10 10 0 0 0 -10 10v130h60v-130a10 10 0 0 0 -10-10z" fill="#6994fe"/><path d="m44.7 85.95h30v240.08h-30z" fill="#d85561"/><path d="m407.71 429.75h-24a30 30 0 0 0 42 27.5 30 30 0 0 1 -18-27.5z" fill="#3e7fba"/><path d="m407.71 429.75v-130a10 10 0 0 1 10-10h-24a10 10 0 0 0 -10 10v130z" fill="#5987e2"/><g fill="#284268"><circle cx="401.71" cy="368.747" r="7"/><circle cx="401.71" cy="344.747" r="7"/><circle cx="401.71" cy="394.747" r="7"/><circle cx="425.71" cy="368.747" r="7"/><circle cx="425.71" cy="344.747" r="7"/><circle cx="425.71" cy="394.747" r="7"/><circle cx="401.71" cy="314.747" r="7"/><path d="m489.768 46.253h-467.536a17.251 17.251 0 0 0 -17.232 17.232v285.015a17.251 17.251 0 0 0 17.232 17.232h165.992v35.8h-24.545a6 6 0 1 0 0 12h184.642a6 6 0 0 0 0-12h-24.545v-35.8h53.934v64.016a36 36 0 0 0 72 0v-64.017h40.058a17.251 17.251 0 0 0 17.232-17.231v-285.015a17.251 17.251 0 0 0 -17.232-17.232zm-177.992 355.277h-111.552v-35.8h111.552zm125.934 22.217h-7.085a6 6 0 0 0 0 12h6.325a24 24 0 0 1 -46.48 0h20.043a6 6 0 0 0 0-12h-20.8v-124a4 4 0 0 1 4-4h40a4 4 0 0 1 4 4zm57.29-75.247a5.238 5.238 0 0 1 -5.232 5.232h-40.058v-21.7h17.59a6 6 0 0 0 6-6v-240.083a6 6 0 0 0 -6-6h-339.885a6 6 0 0 0 0 12h333.885v228.086h-11.59v-20.288a16.019 16.019 0 0 0 -16-16h-40a16.019 16.019 0 0 0 -16 16v20.288h-327.01v-228.086h36.715a6 6 0 0 0 0-12h-42.715a6 6 0 0 0 -6 6v240.086a6 6 0 0 0 6 6h333.01v21.7h-355.478a5.238 5.238 0 0 1 -5.232-5.235v-285.015a5.238 5.238 0 0 1 5.232-5.232h467.536a5.238 5.238 0 0 1 5.232 5.232z"/><path d="m304.335 240.844a6 6 0 0 0 -8.409 1.135 50.874 50.874 0 0 1 -5.26 5.882 6 6 0 0 0 8.3 8.672 62.7 62.7 0 0 0 6.508-7.28 6 6 0 0 0 -1.139-8.409z"/><path d="m256 273.769a62.166 62.166 0 0 0 17.913-2.623 6 6 0 1 0 -3.453-11.492 50.1 50.1 0 1 1 34-35.05 6 6 0 0 0 11.592 3.1 62.168 62.168 0 1 0 -60.052 46.065z"/><path d="m284.2 206.808-32.092-24.069a6 6 0 0 0 -9.6 4.8v48.138a6 6 0 0 0 9.6 4.8l32.092-24.069a6 6 0 0 0 0-9.6zm-29.691 16.869v-24.138l16.091 12.069z"/></g></svg>